<?xml version="1.0" encoding="UTF-8"?>
<svg xmlns="http://www.w3.org/2000/svg" version="1.1" viewBox="0 0 474.8 377">
  <defs>
    <style>
      .cls-1 {
        letter-spacing: 0em;
      }

      .cls-1, .cls-2, .cls-3, .cls-4, .cls-5 {
        fill: #fff;
      }

      .cls-1, .cls-6, .cls-3, .cls-4, .cls-5 {
        isolation: isolate;
      }

      .cls-1, .cls-3, .cls-4, .cls-5 {
        font-family: Arial-BoldMT, Arial;
        font-size: 24px;
        font-weight: 700;
      }

      .cls-3 {
        letter-spacing: 0em;
      }

      .cls-5 {
        letter-spacing: 0em;
      }
    </style>
  </defs>
  <!-- Generator: Adobe Illustrator 28.7.1, SVG Export Plug-In . SVG Version: 1.2.0 Build 142)  -->
  <g>
    <g id="Capa_2">
      <g id="Capa_1-2">
        <g>
          <g class="cls-6">
            <text class="cls-4" transform="translate(74.8 368.9)"><tspan x="0" y="0">IN</tspan></text>
            <text class="cls-4" transform="translate(101.4 368.9)"><tspan x="0" y="0">D</tspan></text>
            <text class="cls-4" transform="translate(117.8 368.9)"><tspan x="0" y="0">UMEN</tspan></text>
            <text class="cls-3" transform="translate(188.6 368.9)"><tspan x="0" y="0">T</tspan></text>
            <text class="cls-4" transform="translate(201.3 368.9)"><tspan x="0" y="0">A</tspan></text>
            <text class="cls-4" transform="translate(217.7 368.9)"><tspan x="0" y="0">R</tspan></text>
            <text class="cls-4" transform="translate(233.9 368.9)"><tspan x="0" y="0">I</tspan></text>
            <text class="cls-4" transform="translate(243.8 368.9)"><tspan x="0" y="0">A </tspan></text>
            <text class="cls-4" transform="translate(265.4 368.9)"><tspan x="0" y="0">D</tspan></text>
            <text class="cls-4" transform="translate(281.8 368.9)"><tspan x="0" y="0">EP</tspan></text>
            <text class="cls-4" transform="translate(311.4 368.9)"><tspan x="0" y="0">O</tspan></text>
            <text class="cls-1" transform="translate(328.3 368.9)"><tspan x="0" y="0">R</tspan></text>
            <text class="cls-4" transform="translate(344.3 368.9)"><tspan x="0" y="0">TI</tspan></text>
            <text class="cls-5" transform="translate(368.3 368.9)"><tspan x="0" y="0">V</tspan></text>
            <text class="cls-4" transform="translate(382.4 368.9)"><tspan x="0" y="0">A</tspan></text>
          </g>
          <g>
            <path class="cls-2" d="M28.1,329.4L0,260.8h21.8l17.4,42.6h.4l6.5-42.6h20.2l-13.2,68.6h-25Z"/>
            <path class="cls-2" d="M66.3,329.4l12.2-68.8h22.1l-12.2,68.8h-22.1Z"/>
            <path class="cls-2" d="M131.2,330.4c-5.3,0-10.1-1-14.3-3.1-4.2-2.1-7.5-5-9.9-8.9s-3.6-8.5-3.6-13.8.2-3.1.5-5.8.7-5.6,1.2-8.9c.6-4.1,1.8-8,3.6-11.6,1.8-3.6,4.1-6.8,6.9-9.5,2.8-2.7,6.2-4.9,10.1-6.5,3.9-1.6,8.4-2.4,13.4-2.4h2.8c4.9,0,9.4.9,13.4,2.6s7.2,4.3,9.6,7.8c2.4,3.5,3.6,7.8,3.6,13s0,1.9-.1,2.8c0,.9-.2,1.8-.3,2.8h-19.7c.3-1.4.4-2.5.5-3.2s.1-1.4.1-2c0-1.7-.4-3.2-1.1-4.4-.7-1.2-1.8-2.1-3.2-2.8s-3.1-1-5-1-3.9.4-5.5,1.1-2.9,1.9-3.9,3.4-1.7,3.3-2,5.5c-.6,4.1-1.1,7.4-1.4,9.9s-.6,4.5-.8,5.9-.3,2.5-.4,3.2,0,1.3,0,1.8c0,1.6.3,3,1,4.3s1.7,2.3,3,3,2.9,1.1,4.8,1.1c2.8,0,5.1-.4,6.9-1.3s3.1-2.3,4.1-4.2,1.8-4.6,2.3-7.9h18.8c-.9,6-2.7,11.2-5.5,15.5s-6.4,7.7-10.9,10-9.8,3.5-15.8,3.5h-2.9Z"/>
            <path class="cls-2" d="M183.4,329.4l7.4-52.1h-17.2l2.3-16.5h55.6l-2.3,16.5h-17.4l-7.3,52.1h-21.1Z"/>
            <path class="cls-2" d="M256.3,330.4c-5.1,0-9.6-1.1-13.4-3.4s-7-5.4-9.2-9.2-3.4-8.3-3.4-13.1.2-3.1.5-5.8.7-5.6,1.2-8.9c.6-4.1,1.9-8,3.8-11.6s4.3-6.8,7.3-9.5c3-2.7,6.4-4.9,10.3-6.5s8.2-2.4,12.8-2.4h5.6c5.1,0,9.5,1.1,13.5,3.4,3.9,2.3,7,5.4,9.2,9.2s3.4,8.3,3.4,13.1-.1,3.2-.5,5.8c-.3,2.6-.7,5.5-1.2,8.8-.6,4.1-1.9,8-3.8,11.6s-4.3,6.8-7.3,9.5c-3,2.7-6.4,4.9-10.3,6.5s-8.2,2.4-12.9,2.4h-5.6ZM261.6,314.8c1.5,0,3-.2,4.2-.6s2.5-1.1,3.5-2c1-.9,1.8-1.9,2.5-3.1.6-1.2,1-2.6,1.2-4.2.6-4.1,1.1-7.4,1.4-9.9s.6-4.5.8-5.9.3-2.5.4-3.2.1-1.3.1-1.8c0-1.7-.4-3.1-1.1-4.4s-1.8-2.2-3.2-3c-1.4-.7-3-1-4.9-1s-3,.2-4.2.6-2.5,1.1-3.5,2c-1,.9-1.8,1.9-2.5,3.1-.6,1.2-1.1,2.6-1.2,4.2-.6,4.1-1.1,7.4-1.4,9.9-.3,2.5-.6,4.5-.8,5.9s-.3,2.5-.4,3.2c0,.7-.1,1.3-.1,1.8,0,1.7.4,3.1,1.1,4.4.8,1.3,1.8,2.2,3.2,3s3,1,4.9,1h0Z"/>
            <path class="cls-2" d="M350.1,330.4c-2.7,0-4.9-.3-6.8-1s-3.3-1.7-4.3-3.1-1.5-3.4-1.5-5.8.1-2.7.4-4,.4-2.8.4-4.3-.1-2.1-.3-3c-.2-.9-.6-1.6-1.1-2.1s-1.3-1-2.2-1.3-2.2-.5-3.7-.5h-6.1l-3.4,24h-20.5l9.6-68.6h38.8c3.1,0,5.8.7,8.3,2s4.5,3.2,6,5.6,2.2,5,2.2,8-.7,6.7-2,9.4c-1.4,2.7-3.2,5-5.4,6.8-2.2,1.8-4.6,3.1-7.2,3.9v.5c1.5.5,2.9,1,3.9,1.8,1.1.7,2,1.5,2.7,2.5s1.2,2.1,1.5,3.4c.3,1.3.5,2.7.5,4.2s-.1,2.7-.4,3.9c-.2,1.2-.4,2.7-.4,4.4s.1,2.1.3,3.1c.2,1,.6,1.9,1.1,2.6s1.4,1.2,2.4,1.5l-.6,4.1c-1.9.7-4,1.2-6.1,1.5s-4.2.4-6.1.4h0ZM327,290.1h11c1.4,0,2.6-.4,3.5-1.2s1.6-1.9,2.1-3.2.8-2.7.8-4.1-.4-2.6-1.1-3.5-1.9-1.5-3.5-1.5h-11l-1.8,13.6Z"/>
            <path class="cls-2" d="M370.2,329.4l12.2-68.8h22.1l-12.2,68.8h-22.1Z"/>
            <path class="cls-2" d="M433.3,330.4c-5.1,0-9.5-1.1-13.5-3.4-3.9-2.3-7-5.4-9.2-9.2s-3.4-8.3-3.4-13.1.2-3.1.5-5.8.7-5.6,1.2-8.9c.6-4.1,1.9-8,3.8-11.6s4.3-6.8,7.3-9.5c3-2.7,6.4-4.9,10.3-6.5s8.2-2.4,12.9-2.4h5.6c5.1,0,9.5,1.1,13.5,3.4,3.9,2.3,7,5.4,9.2,9.2s3.4,8.3,3.4,13.1-.1,3.2-.5,5.8c-.3,2.6-.7,5.5-1.2,8.8-.6,4.1-1.9,8-3.8,11.6s-4.3,6.8-7.3,9.5c-3,2.7-6.4,4.9-10.3,6.5s-8.2,2.4-12.9,2.4h-5.6ZM438.6,314.8c1.5,0,3-.2,4.2-.6s2.5-1.1,3.5-2c1-.9,1.8-1.9,2.5-3.1.6-1.2,1-2.6,1.2-4.2.6-4.1,1.1-7.4,1.4-9.9s.6-4.5.8-5.9.3-2.5.4-3.2.1-1.3.1-1.8c0-1.7-.4-3.1-1.1-4.4s-1.8-2.2-3.2-3c-1.4-.7-3-1-4.9-1s-3,.2-4.2.6-2.5,1.1-3.5,2c-1,.9-1.8,1.9-2.5,3.1-.6,1.2-1,2.6-1.2,4.2-.6,4.1-1.1,7.4-1.4,9.9s-.6,4.5-.8,5.9-.3,2.5-.4,3.2-.1,1.3-.1,1.8c0,1.7.4,3.1,1.1,4.4s1.8,2.2,3.2,3c1.4.7,3,1,4.9,1Z"/>
          </g>
          <path class="cls-2" d="M346.7,116.1c-11.6,18.3-29.8,42.2-57,64.8-9.9,8.2-19.9,15.3-29.6,21.4-7.7,4.8-15.2,9-22.6,12.7-7.3-3.7-14.9-7.9-22.6-12.7-9.8-6.1-19.8-13.2-29.7-21.4-27.2-22.6-45.4-46.5-57.1-64.8-1.6-11.5-4-40.8,11.6-72.3C151.2,20.8,167.2,6.9,176.4,0c.8,24.8,4.7,57.2,17.2,93,11.5,32.8,27.4,60.1,43.8,82.2,16.4-22.1,32.3-49.4,43.8-82.2C293.7,57.2,297.6,24.8,298.4,0c9.2,6.9,25.2,20.8,36.6,43.8,15.6,31.5,13.2,60.8,11.6,72.3Z"/>
        </g>
      </g>
    </g>
  </g>
</svg>