<?xml version="1.0" encoding="UTF-8"?>
<svg id="Capa_2" xmlns="http://www.w3.org/2000/svg" viewBox="0 0 565.73 498.52">
  <defs>
    <style>
      .cls-1 {
        fill: #fff;
      }
    </style>
  </defs>
  <g id="Capa_1-2" data-name="Capa_1">
    <g>
      <path class="cls-1" d="M447.45,142.6c0,3.47-.11,6.9-.33,10.31-34.15,57.73-82.47,106.08-140.2,140.24-7.85,4.65-15.87,9.04-24.06,13.14-8.19-4.1-16.21-8.49-24.06-13.14-57.72-34.17-106.05-82.51-140.2-140.24-.22-3.42-.33-6.84-.33-10.31,0-60.95,33.14-114.17,82.38-142.6,1.6,96.49,31.68,186.05,82.21,260.65C333.39,186.05,363.47,96.49,365.07,0c49.24,28.43,82.38,81.65,82.38,142.6"/>
      <polygon class="cls-1" points="12.96 443.24 0 360.94 26.15 360.94 33.35 412.05 33.83 412.05 55.3 360.94 79.54 360.94 42.95 443.24 12.96 443.24"/>
      <path class="cls-1" d="M153.55,444.44c-6.4,0-12.12-1.24-17.15-3.72-5.04-2.48-9-6.04-11.88-10.68-2.88-4.64-4.32-10.16-4.32-16.55,0-1.44.2-3.74.6-6.9.4-3.16.88-6.7,1.44-10.62.72-4.96,2.14-9.62,4.26-13.98,2.12-4.36,4.88-8.18,8.28-11.46,3.4-3.28,7.44-5.86,12.12-7.74,4.68-1.88,10.02-2.82,16.01-2.82h3.36c5.92,0,11.28,1.04,16.07,3.12,4.8,2.08,8.64,5.2,11.52,9.36,2.88,4.16,4.32,9.36,4.32,15.59,0,1.12-.04,2.22-.12,3.3-.08,1.08-.2,2.18-.36,3.3h-23.63c.32-1.68.52-2.96.6-3.84.08-.88.12-1.68.12-2.4,0-2.08-.44-3.84-1.32-5.28-.88-1.44-2.16-2.54-3.84-3.3-1.68-.76-3.68-1.14-6-1.14-2.48,0-4.68.46-6.6,1.38-1.92.92-3.48,2.28-4.68,4.08-1.2,1.8-2,3.98-2.4,6.54-.72,4.88-1.28,8.84-1.68,11.88-.4,3.04-.72,5.4-.96,7.08-.24,1.68-.4,2.96-.48,3.84-.08.88-.12,1.6-.12,2.16,0,1.92.4,3.64,1.2,5.16.8,1.52,1.98,2.72,3.54,3.6,1.56.88,3.46,1.32,5.7,1.32,3.36,0,6.1-.52,8.22-1.56,2.12-1.04,3.78-2.74,4.98-5.1,1.2-2.36,2.12-5.5,2.76-9.42h22.55c-1.04,7.2-3.24,13.4-6.6,18.59-3.36,5.2-7.74,9.2-13.14,12-5.4,2.8-11.7,4.2-18.89,4.2h-3.48Z"/>
      <polygon class="cls-1" points="216.17 443.24 225.05 380.74 204.41 380.74 207.17 360.94 273.87 360.94 271.11 380.74 250.24 380.74 241.48 443.24 216.17 443.24"/>
      <path class="cls-1" d="M303.62,444.44c-6.08,0-11.46-1.36-16.14-4.08-4.68-2.72-8.36-6.42-11.04-11.1-2.68-4.68-4.02-9.94-4.02-15.78,0-1.44.2-3.74.6-6.9.4-3.16.88-6.7,1.44-10.62.72-4.96,2.22-9.61,4.5-13.98,2.28-4.36,5.2-8.18,8.76-11.46,3.56-3.28,7.68-5.86,12.36-7.74,4.68-1.88,9.82-2.82,15.42-2.82h6.72c6.08,0,11.46,1.36,16.13,4.08,4.68,2.72,8.36,6.42,11.04,11.1,2.68,4.68,4.02,9.94,4.02,15.77,0,1.52-.18,3.84-.54,6.96-.36,3.12-.86,6.64-1.5,10.56-.72,4.96-2.22,9.62-4.5,13.97-2.28,4.36-5.2,8.18-8.76,11.46-3.56,3.28-7.68,5.86-12.36,7.74-4.68,1.88-9.82,2.82-15.42,2.82h-6.72ZM309.98,425.72c1.84,0,3.54-.26,5.1-.78,1.56-.52,2.94-1.3,4.14-2.34,1.2-1.04,2.18-2.3,2.94-3.78.76-1.48,1.26-3.18,1.5-5.1.72-4.88,1.28-8.84,1.68-11.88.4-3.04.72-5.4.96-7.08.24-1.68.4-2.96.48-3.84.08-.88.12-1.6.12-2.16,0-2-.46-3.76-1.38-5.28-.92-1.52-2.2-2.7-3.84-3.54-1.64-.84-3.58-1.26-5.82-1.26-1.84,0-3.54.26-5.1.78-1.56.52-2.94,1.3-4.14,2.34-1.2,1.04-2.18,2.3-2.94,3.78-.76,1.48-1.26,3.18-1.5,5.1-.72,4.88-1.28,8.84-1.68,11.88-.4,3.04-.72,5.4-.96,7.08-.24,1.68-.4,2.96-.48,3.84-.08.88-.12,1.6-.12,2.16,0,2,.46,3.76,1.38,5.28.92,1.52,2.2,2.7,3.84,3.54,1.64.84,3.58,1.26,5.82,1.26"/>
      <path class="cls-1" d="M416.14,444.44c-3.2,0-5.92-.38-8.16-1.14-2.24-.76-3.96-2-5.16-3.72-1.2-1.72-1.8-4.02-1.8-6.9,0-1.6.16-3.2.48-4.8.32-1.6.48-3.32.48-5.16,0-1.36-.12-2.56-.36-3.6-.24-1.04-.7-1.9-1.38-2.58-.68-.68-1.58-1.2-2.7-1.56-1.12-.36-2.6-.54-4.44-.54h-7.32l-4.08,28.79h-24.59l11.52-82.29h46.54c3.68,0,7,.82,9.96,2.46,2.96,1.64,5.34,3.88,7.14,6.72,1.8,2.84,2.7,6.06,2.7,9.66,0,4.24-.82,8-2.46,11.28-1.64,3.28-3.8,6-6.48,8.16-2.68,2.16-5.58,3.72-8.7,4.68l-.12.6c1.92.56,3.54,1.26,4.86,2.1,1.32.84,2.4,1.84,3.24,3,.84,1.16,1.46,2.5,1.86,4.02.4,1.52.6,3.2.6,5.04,0,1.68-.14,3.24-.42,4.68-.28,1.44-.42,3.2-.42,5.28,0,1.28.12,2.52.36,3.72.24,1.2.7,2.24,1.38,3.12.68.88,1.62,1.48,2.82,1.8l-.72,4.92c-2.32.88-4.76,1.48-7.32,1.8-2.56.32-5,.48-7.32.48M388.43,396.09h13.2c1.68,0,3.08-.5,4.2-1.5,1.12-1,1.98-2.28,2.58-3.84.6-1.56.9-3.22.9-4.98s-.46-3.1-1.38-4.26c-.92-1.16-2.3-1.74-4.14-1.74h-13.2l-2.16,16.31Z"/>
      <path class="cls-1" d="M515.95,444.44c-6.08,0-11.46-1.36-16.14-4.08-4.68-2.72-8.36-6.42-11.04-11.1-2.68-4.68-4.02-9.94-4.02-15.78,0-1.44.2-3.74.6-6.9.4-3.16.88-6.7,1.44-10.62.72-4.96,2.22-9.61,4.5-13.98,2.28-4.36,5.2-8.18,8.76-11.46,3.56-3.28,7.68-5.86,12.36-7.74,4.68-1.88,9.82-2.82,15.41-2.82h6.72c6.08,0,11.46,1.36,16.13,4.08,4.68,2.72,8.36,6.42,11.04,11.1,2.68,4.68,4.02,9.94,4.02,15.77,0,1.52-.18,3.84-.54,6.96-.36,3.12-.86,6.64-1.5,10.56-.72,4.96-2.22,9.62-4.5,13.97-2.28,4.36-5.2,8.18-8.76,11.46-3.56,3.28-7.68,5.86-12.36,7.74-4.68,1.88-9.82,2.82-15.42,2.82h-6.72ZM522.3,425.72c1.84,0,3.54-.26,5.1-.78,1.56-.52,2.94-1.3,4.14-2.34,1.2-1.04,2.18-2.3,2.94-3.78.76-1.48,1.26-3.18,1.5-5.1.72-4.88,1.28-8.84,1.68-11.88.4-3.04.72-5.4.96-7.08.24-1.68.4-2.96.48-3.84.08-.88.12-1.6.12-2.16,0-2-.46-3.76-1.38-5.28-.92-1.52-2.2-2.7-3.84-3.54-1.64-.84-3.58-1.26-5.82-1.26-1.84,0-3.54.26-5.1.78-1.56.52-2.94,1.3-4.14,2.34-1.2,1.04-2.18,2.3-2.94,3.78-.76,1.48-1.26,3.18-1.5,5.1-.72,4.88-1.28,8.84-1.68,11.88-.4,3.04-.72,5.4-.96,7.08-.24,1.68-.4,2.96-.48,3.84-.08.88-.12,1.6-.12,2.16,0,2,.46,3.76,1.38,5.28.92,1.52,2.2,2.7,3.84,3.54,1.64.84,3.58,1.26,5.82,1.26"/>
      <polygon class="cls-1" points="103.65 443.24 78.34 443.24 89.9 360.94 115.21 360.94 103.65 443.24"/>
      <polygon class="cls-1" points="469.72 443.24 444.41 443.24 455.98 360.94 481.29 360.94 469.72 443.24"/>
      <rect class="cls-1" x="25.87" y="470.69" width="3.8" height="27.43"/>
      <polygon class="cls-1" points="36.75 498.12 36.75 470.69 40.3 470.69 51.7 487.89 53.26 490.48 53.42 490.48 53.42 470.69 57.26 470.69 57.26 498.12 53.58 498.12 41.82 480.37 40.7 478.41 40.54 478.45 40.54 498.12 36.75 498.12"/>
      <path class="cls-1" d="M64.49,498.12v-27.43h9.95c1.54,0,2.98.22,4.32.66,1.33.44,2.5,1.15,3.52,2.14,1.01.99,1.81,2.26,2.38,3.84.57,1.57.86,3.5.86,5.8v1.8c0,2.26-.29,4.22-.86,5.88-.57,1.65-1.37,3.02-2.38,4.12-1.01,1.09-2.18,1.9-3.52,2.42-1.33.52-2.77.78-4.32.78h-9.95ZM68.73,494.76h5.44c1.3,0,2.48-.29,3.52-.86s1.87-1.51,2.48-2.8c.61-1.29.92-3.03.92-5.22v-3.44c0-2.13-.31-3.81-.92-5.04-.61-1.22-1.44-2.09-2.48-2.6s-2.21-.76-3.52-.76h-5.44v20.71Z"/>
      <path class="cls-1" d="M100.95,498.52c-1.97,0-3.69-.38-5.16-1.14-1.47-.76-2.59-1.82-3.38-3.2-.79-1.37-1.18-2.98-1.18-4.82v-18.67h4.24v18.55c0,1.76.53,3.18,1.58,4.28,1.05,1.09,2.51,1.64,4.38,1.64s3.4-.55,4.44-1.66c1.04-1.11,1.56-2.52,1.56-4.26v-18.55h4.28v18.67c0,1.81-.43,3.41-1.28,4.8-.85,1.39-2.03,2.46-3.54,3.22-1.5.76-3.23,1.14-5.18,1.14h-.76Z"/>
      <polygon class="cls-1" points="118.75 498.12 118.75 470.69 125.58 470.69 134.06 492 134.14 492 142.65 470.69 149.53 470.69 149.53 498.12 145.29 498.12 145.29 475.57 145.09 475.57 136.18 498.12 131.62 498.12 122.74 475.57 122.54 475.57 122.54 498.12 118.75 498.12"/>
      <polygon class="cls-1" points="156.77 498.12 156.77 470.69 174.88 470.69 174.36 474.05 161.01 474.05 161.01 482.45 173.12 482.45 173.12 485.81 161.01 485.81 161.01 494.76 174.6 494.76 175.16 498.12 156.77 498.12"/>
      <polygon class="cls-1" points="180.56 498.12 180.56 470.69 184.11 470.69 195.51 487.89 197.07 490.48 197.23 490.48 197.23 470.69 201.06 470.69 201.06 498.12 197.39 498.12 185.63 480.37 184.51 478.41 184.35 478.45 184.35 498.12 180.56 498.12"/>
      <polygon class="cls-1" points="214.14 498.12 214.14 474.05 205.7 474.05 205.7 470.69 226.85 470.69 226.85 474.05 218.42 474.05 218.42 498.12 214.14 498.12"/>
      <path class="cls-1" d="M226.05,498.12l10.64-27.43h4.8l10.6,27.43h-4.48l-2.4-6.16h-12.59l-2.4,6.16h-4.16ZM233.77,488.73h10.24l-5.04-13.23h-.16l-5.04,13.23Z"/>
      <path class="cls-1" d="M275.31,498.32c-.67,0-1.3-.13-1.9-.4-.6-.26-1.09-.77-1.48-1.52-.39-.75-.58-1.83-.58-3.24,0-1.33-.14-2.42-.42-3.28-.28-.85-.66-1.53-1.14-2.02-.48-.49-.99-.84-1.52-1.06-.53-.21-1.05-.32-1.56-.32h-6.56v11.64h-4.24v-27.43h12.83c1.3,0,2.5.28,3.6.84s1.98,1.35,2.68,2.36c.69,1.01,1.04,2.21,1.04,3.6,0,1.09-.22,2.11-.66,3.04-.44.93-1.03,1.75-1.76,2.44-.73.69-1.54,1.21-2.42,1.56v.2c.27.08.63.25,1.1.5.47.25.95.63,1.44,1.14.49.51.91,1.2,1.26,2.08.35.88.52,1.97.52,3.28,0,.99.04,1.79.12,2.4.08.61.21,1.11.38,1.48.17.37.39.65.66.84.26.19.56.35.88.48v1.04c-.24.11-.57.19-.98.26-.41.07-.85.1-1.3.1M260.16,483.17h7.44c.8,0,1.51-.25,2.14-.76.63-.5,1.13-1.15,1.52-1.94.39-.79.58-1.62.58-2.5,0-1.25-.39-2.22-1.18-2.9-.79-.68-1.79-1.02-3.02-1.02h-7.48v9.12Z"/>
      <rect class="cls-1" x="282.67" y="470.69" width="3.8" height="27.43"/>
      <path class="cls-1" d="M290.3,498.12l10.64-27.43h4.8l10.6,27.43h-4.48l-2.4-6.16h-12.59l-2.4,6.16h-4.16ZM298.02,488.73h10.24l-5.04-13.23h-.16l-5.04,13.23Z"/>
      <path class="cls-1" d="M329.44,498.12v-27.43h9.95c1.54,0,2.98.22,4.32.66,1.33.44,2.5,1.15,3.52,2.14,1.01.99,1.81,2.26,2.38,3.84.57,1.57.86,3.5.86,5.8v1.8c0,2.26-.29,4.22-.86,5.88-.57,1.65-1.37,3.02-2.38,4.12-1.01,1.09-2.18,1.9-3.52,2.42-1.33.52-2.77.78-4.32.78h-9.95ZM333.68,494.76h5.44c1.3,0,2.48-.29,3.52-.86s1.87-1.51,2.48-2.8c.61-1.29.92-3.03.92-5.22v-3.44c0-2.13-.31-3.81-.92-5.04-.61-1.22-1.44-2.09-2.48-2.6s-2.21-.76-3.52-.76h-5.44v20.71Z"/>
      <polygon class="cls-1" points="356.43 498.12 356.43 470.69 374.54 470.69 374.02 474.05 360.67 474.05 360.67 482.45 372.78 482.45 372.78 485.81 360.67 485.81 360.67 494.76 374.26 494.76 374.82 498.12 356.43 498.12"/>
      <path class="cls-1" d="M380.22,498.12v-27.43h12.39c1.44,0,2.74.33,3.92.98,1.17.65,2.1,1.55,2.78,2.7.68,1.15,1.02,2.42,1.02,3.84v.4c0,1.41-.36,2.73-1.08,3.96-.72,1.22-1.67,2.21-2.86,2.94-1.19.73-2.51,1.1-3.98,1.1h-7.96v11.51h-4.24ZM384.46,483.25h7.16c.88,0,1.65-.21,2.32-.62.67-.41,1.19-.97,1.58-1.68.39-.71.58-1.5.58-2.38,0-1.28-.42-2.35-1.26-3.22-.84-.87-1.94-1.3-3.3-1.3h-7.08v9.19Z"/>
      <path class="cls-1" d="M415.4,498.52c-1.52,0-2.95-.23-4.3-.7-1.35-.47-2.53-1.21-3.54-2.24-1.01-1.03-1.81-2.37-2.38-4.04-.57-1.67-.86-3.7-.86-6.1v-2.08c0-2.37.29-4.39.88-6.06.59-1.67,1.39-3.01,2.42-4.04,1.03-1.03,2.21-1.77,3.54-2.24,1.33-.47,2.74-.7,4.24-.7h.8c1.54,0,2.98.23,4.32.7,1.33.47,2.5,1.21,3.52,2.24,1.01,1.03,1.8,2.37,2.36,4.04.56,1.67.84,3.68.84,6.06v2.08c0,2.4-.29,4.43-.86,6.1-.57,1.67-1.38,3.01-2.42,4.04-1.04,1.03-2.22,1.77-3.54,2.24-1.32.47-2.73.7-4.22.7h-.8ZM415.76,495.16c1.01,0,1.94-.14,2.78-.42.84-.28,1.59-.75,2.24-1.42.65-.67,1.16-1.56,1.52-2.68.36-1.12.54-2.53.54-4.24v-3.92c0-1.7-.18-3.13-.54-4.28-.36-1.15-.87-2.05-1.52-2.7-.65-.65-1.4-1.12-2.24-1.4-.84-.28-1.75-.42-2.74-.42s-1.87.14-2.74.42c-.87.28-1.62.75-2.26,1.4-.64.65-1.14,1.55-1.5,2.68-.36,1.13-.54,2.55-.54,4.26v3.92c0,1.71.18,3.13.54,4.26.36,1.13.86,2.03,1.5,2.7.64.67,1.39,1.14,2.24,1.42.85.28,1.76.42,2.72.42"/>
      <path class="cls-1" d="M452.62,498.32c-.67,0-1.3-.13-1.9-.4-.6-.26-1.09-.77-1.48-1.52-.39-.75-.58-1.83-.58-3.24,0-1.33-.14-2.42-.42-3.28-.28-.85-.66-1.53-1.14-2.02-.48-.49-.99-.84-1.52-1.06-.53-.21-1.05-.32-1.56-.32h-6.56v11.64h-4.24v-27.43h12.83c1.3,0,2.5.28,3.6.84s1.98,1.35,2.68,2.36c.69,1.01,1.04,2.21,1.04,3.6,0,1.09-.22,2.11-.66,3.04-.44.93-1.03,1.75-1.76,2.44-.73.69-1.54,1.21-2.42,1.56v.2c.27.08.63.25,1.1.5.47.25.94.63,1.44,1.14.49.51.91,1.2,1.26,2.08.35.88.52,1.97.52,3.28,0,.99.04,1.79.12,2.4.08.61.21,1.11.38,1.48.17.37.39.65.66.84.26.19.56.35.88.48v1.04c-.24.11-.57.19-.98.26-.41.07-.85.1-1.3.1M437.47,483.17h7.44c.8,0,1.51-.25,2.14-.76.63-.5,1.13-1.15,1.52-1.94.39-.79.58-1.62.58-2.5,0-1.25-.39-2.22-1.18-2.9-.79-.68-1.79-1.02-3.02-1.02h-7.48v9.12Z"/>
      <polygon class="cls-1" points="465.62 498.12 465.62 474.05 457.18 474.05 457.18 470.69 478.33 470.69 478.33 474.05 469.89 474.05 469.89 498.12 465.62 498.12"/>
      <rect class="cls-1" x="482.81" y="470.69" width="3.8" height="27.43"/>
      <polygon class="cls-1" points="500.16 498.12 490.48 470.69 494.96 470.69 502.56 492.36 502.72 492.36 510.31 470.69 514.43 470.69 504.76 498.12 500.16 498.12"/>
      <path class="cls-1" d="M513.83,498.12l10.64-27.43h4.8l10.6,27.43h-4.48l-2.4-6.16h-12.59l-2.4,6.16h-4.16ZM521.55,488.73h10.24l-5.04-13.23h-.16l-5.04,13.23Z"/>
    </g>
  </g>
</svg>